HIERARCHY
ROOT Hips
{
	OFFSET -0.001795 -0.223333 0.028219
	CHANNELS 6 Xposition Yposition Zposition Zrotation Yrotation Xrotation 
	JOINT LeftUpLeg
	{
		OFFSET 0.069520 -0.091406 -0.006815
		CHANNELS 3 Zrotation Yrotation Xrotation
		JOINT LeftLeg
		{
			OFFSET 0.034277 -0.375199 -0.004496
			CHANNELS 3 Zrotation Yrotation Xrotation
			JOINT LeftFoot
			{
				OFFSET -0.013596 -0.397961 -0.043693
				CHANNELS 3 Zrotation Yrotation Xrotation
				JOINT LeftToe
				{
					OFFSET 0.026358 -0.055791 0.119288
					CHANNELS 3 Zrotation Yrotation Xrotation
					End Site
					{
						OFFSET 0.000000 0.000000 0.000000
					}
				}
			}
		}
	}
	JOINT RightUpLeg
	{
		OFFSET -0.067670 -0.090522 -0.004320
		CHANNELS 3 Zrotation Yrotation Xrotation
		JOINT RightLeg
		{
			OFFSET -0.038290 -0.382569 -0.008850
			CHANNELS 3 Zrotation Yrotation Xrotation
			JOINT RightFoot
			{
				OFFSET 0.015774 -0.398415 -0.042312
				CHANNELS 3 Zrotation Yrotation Xrotation
				JOINT RightToe
				{
					OFFSET -0.025372 -0.048144 0.123348
					CHANNELS 3 Zrotation Yrotation Xrotation
					End Site
					{
						OFFSET 0.000000 0.000000 0.000000
					}
				}
			}
		}
	}
	JOINT Spine
	{
		OFFSET -0.002533 0.108963 -0.026696
		CHANNELS 3 Zrotation Yrotation Xrotation
		JOINT Spine1
		{
			OFFSET 0.005487 0.135180 0.001092
			CHANNELS 3 Zrotation Yrotation Xrotation
			JOINT Spine2
			{
				OFFSET 0.001457 0.052922 0.025425
				CHANNELS 3 Zrotation Yrotation Xrotation
				JOINT Neck
				{
					OFFSET -0.002778 0.213870 -0.042857
					CHANNELS 3 Zrotation Yrotation Xrotation
					JOINT Head
					{
						OFFSET 0.005152 0.064970 0.051349
						CHANNELS 3 Zrotation Yrotation Xrotation
						End Site
						{
							OFFSET 0.000000 0.000000 0.000000
						}
					}
				}
				JOINT LeftShoulder
				{
					OFFSET 0.078845 0.121749 -0.034090
					CHANNELS 3 Zrotation Yrotation Xrotation
					JOINT LeftArm
					{
						OFFSET 0.090977 0.030469 -0.008868
						CHANNELS 3 Zrotation Yrotation Xrotation
						JOINT LeftForeArm
						{
							OFFSET 0.259612 -0.012772 -0.027456
							CHANNELS 3 Zrotation Yrotation Xrotation
							JOINT LeftHand
							{
								OFFSET 0.249234 0.008986 -0.001171
								CHANNELS 3 Zrotation Yrotation Xrotation
								End Site
								{
									OFFSET 0.000000 0.000000 0.000000
								}
							}
						}
					}
				}
				JOINT RightShoulder
				{
					OFFSET -0.081759 0.118833 -0.038615
					CHANNELS 3 Zrotation Yrotation Xrotation
					JOINT RightArm
					{
						OFFSET -0.096012 0.032551 -0.009143
						CHANNELS 3 Zrotation Yrotation Xrotation
						JOINT RightForeArm
						{
							OFFSET -0.253742 -0.013329 -0.021401
							CHANNELS 3 Zrotation Yrotation Xrotation
							JOINT RightHand
							{
								OFFSET -0.255298 0.007772 -0.005559
								CHANNELS 3 Zrotation Yrotation Xrotation
								End Site
								{
									OFFSET 0.000000 0.000000 0.000000
								}
							}
						}
					}
				}
			}
		}
	}
}
MOTION
Frames: 7
Frame Time: 0.050000
0.000000 0.902077 0.000000 2.377477 2.131445 -2.844285 6.583954 -0.213721 -4.581067 -2.929642 0.022962 20.482507 3.080367 3.883553 -6.547142 0.000000 0.000000 0.000000 -5.052203 0.850666 -14.789920 -1.840244 1.862379 31.428821 1.106926 11.599795 -11.372075 0.000000 0.000000 0.000000 8.168684 -1.117116 9.924989 1.699187 -0.750333 -1.416879 -2.023703 -1.903226 8.083683 5.245766 -2.921798 -10.618568 0.000000 0.000000 0.000000 -20.053741 -7.883923 2.642256 -50.694806 -7.649618 -3.281542 -12.540953 -31.316612 4.836346 0.000000 0.000000 0.000000 17.733533 -0.509710 -1.936561 50.309290 5.403500 -3.027252 0.568028 36.225559 1.466032 0.000000 0.000000 0.000000 
-0.002008 0.901711 0.002466 2.322224 1.286286 -2.714956 6.596615 -0.189381 -4.194355 -3.079616 0.106378 21.206998 3.284184 4.087757 -7.435715 0.000000 0.000000 0.000000 -3.957776 1.068859 -15.848671 -3.710393 2.875297 33.594946 2.082236 14.263803 -10.451954 0.000000 0.000000 0.000000 9.365190 -1.219053 9.965753 0.994911 -0.473047 -0.219710 -1.642474 -2.080819 7.191052 5.077734 -3.176702 -7.981978 0.000000 0.000000 0.000000 -21.214714 -8.555496 3.187155 -50.704375 -7.569384 -3.292012 -10.675307 -32.007826 4.449522 0.000000 0.000000 0.000000 16.875091 -0.125452 -1.817258 50.810986 4.300631 -3.396915 0.053407 38.093491 1.280905 0.000000 0.000000 0.000000 
-0.003914 0.897910 0.004667 2.986072 2.289559 -3.941316 6.164010 -0.170046 -3.543896 -2.874844 -0.066468 23.553839 3.181124 2.437054 -10.029765 0.000000 0.000000 0.000000 -4.024164 0.971563 -14.995471 -4.223915 3.125247 35.342727 1.469445 14.087219 -12.456622 0.000000 0.000000 0.000000 9.090393 -1.327030 11.258186 1.700260 -0.797269 -0.580103 -1.764168 -2.988282 7.665820 3.878142 -2.236165 -9.089440 0.000000 0.000000 0.000000 -21.162737 -8.795239 3.447565 -50.458264 -8.086947 -3.156394 -12.158595 -32.547849 5.003994 0.000000 0.000000 0.000000 17.621365 0.552300 -1.629864 49.112981 4.834522 -3.103792 -1.634981 38.391304 0.684928 0.000000 0.000000 0.000000 
-0.005713 0.895586 0.006932 3.317020 2.751832 -4.611461 6.612284 -0.162401 -3.802272 -3.297831 -0.023848 26.372083 2.803281 1.133059 -10.440080 0.000000 0.000000 0.000000 -4.029460 0.963798 -15.178649 -4.994726 3.591228 37.403739 1.870204 16.234472 -13.082346 0.000000 0.000000 0.000000 9.882998 -1.507207 12.179011 1.716965 -0.844171 0.114431 -1.962141 -3.151453 6.866206 3.688643 -2.344326 -6.702400 0.000000 0.000000 0.000000 -21.500944 -8.842788 3.409851 -49.830320 -8.341214 -2.946607 -12.198095 -33.598467 5.167598 0.000000 0.000000 0.000000 16.962384 0.046227 -1.814305 49.060915 4.565078 -3.142587 -1.152658 39.724042 0.857408 0.000000 0.000000 0.000000 
-0.007260 0.892227 0.009137 4.152163 3.953394 -5.444193 5.556195 -0.194785 -3.887318 -2.920976 -0.315446 28.212365 2.804084 0.950414 -10.453946 0.000000 0.000000 0.000000 -4.640493 0.790320 -14.136320 -5.407617 3.694704 38.236363 1.109967 14.938462 -14.688208 0.000000 0.000000 0.000000 9.950051 -1.625039 13.063127 2.233307 -1.105031 0.184580 -2.456053 -3.531662 7.269919 2.910104 -1.848270 -5.908803 0.000000 0.000000 0.000000 -22.266035 -10.185070 4.115110 -48.798975 -9.084060 -2.625792 -12.118237 -34.582242 5.275036 0.000000 0.000000 0.000000 17.409644 0.508747 -1.551287 47.801683 5.250255 -2.860704 -1.960328 39.800019 0.623679 0.000000 0.000000 0.000000 
-0.008525 0.889259 0.011382 4.469602 4.856433 -5.797043 5.446165 -0.200722 -3.865708 -3.037427 -0.424001 29.897042 2.662442 -0.114321 -11.339230 0.000000 0.000000 0.000000 -4.528023 0.784064 -14.248194 -5.931184 3.945850 39.965778 0.835917 14.693952 -15.601315 0.000000 0.000000 0.000000 10.278071 -1.726111 13.490388 2.307134 -1.165841 0.523157 -2.576055 -3.512395 7.237192 2.313327 -1.536562 -4.281852 0.000000 0.000000 0.000000 -22.817147 -10.741251 4.300859 -48.730931 -9.710041 -2.336175 -11.247333 -35.002779 5.029646 0.000000 0.000000 0.000000 17.167537 0.704998 -1.316085 47.046216 5.425578 -2.786289 -2.247447 39.614593 0.581787 0.000000 0.000000 0.000000 
-0.009218 0.888243 0.013682 5.221824 5.967520 -5.890413 4.739401 -0.235915 -4.042977 -3.037310 -0.570458 30.672879 2.261232 -1.389584 -11.329547 0.000000 0.000000 0.000000 -5.303347 0.656156 -14.354861 -5.744768 3.757643 41.094362 0.684001 14.636903 -16.314384 0.000000 0.000000 0.000000 10.296585 -1.735426 13.410596 2.440234 -1.239775 0.616120 -2.953253 -4.149861 7.846806 2.376579 -1.603941 -4.295656 0.000000 0.000000 0.000000 -23.666420 -11.206414 4.645987 -48.276703 -10.069073 -2.242353 -10.729755 -34.937884 4.865504 0.000000 0.000000 0.000000 17.185882 1.458633 -0.924931 46.036280 5.504246 -2.755588 -2.756114 39.683566 0.411205 0.000000 0.000000 0.000000 
